<?xml version="1.0" standalone="no"?>
<!DOCTYPE svg PUBLIC "-//W3C//DTD SVG 20010904//EN"
 "http://www.w3.org/TR/2001/REC-SVG-20010904/DTD/svg10.dtd">
<svg version="1.0" xmlns="http://www.w3.org/2000/svg"
 width="1135.000000pt" height="704.000000pt" viewBox="0 0 1135.000000 704.000000"
 preserveAspectRatio="xMidYMid meet">

<g transform="translate(0.000000,704.000000) scale(0.100000,-0.100000)"
fill="#000000" stroke="none">
<path d="M5590 5135 l0 -1906 63 3 62 3 3 1903 2 1902 -65 0 -65 0 0 -1905z"/>
<path d="M5300 5140 l0 -1781 63 3 62 3 1 1760 c1 968 -1 1768 -3 1778 -4 14
-15 17 -64 17 l-59 0 0 -1780z"/>
<path d="M5909 6778 c-2 -7 -3 -784 -1 -1725 l2 -1713 54 0 53 0 6 83 c4 45 7
821 6 1725 l0 1642 -58 0 c-39 0 -60 -4 -62 -12z"/>
<path d="M5000 5140 l0 -1540 65 0 65 0 -2 1538 -3 1537 -62 3 -63 3 0 -1541z"/>
<path d="M4710 5185 l0 -1405 65 0 66 0 -3 1053 c-1 578 -4 1211 -6 1405 l-4
352 -59 0 -59 0 0 -1405z"/>
<path d="M6210 5045 l0 -1515 55 0 c30 0 55 3 55 8 0 4 0 679 1 1500 0 1127
-3 1497 -12 1508 -7 8 -30 14 -55 14 l-44 0 0 -1515z"/>
<path d="M6500 5075 l0 -1365 67 0 66 0 -6 323 c-4 177 -7 791 -7 1365 l0
1042 -60 0 -60 0 0 -1365z"/>
<path d="M4407 6078 c-3 -172 -6 -730 -7 -1240 l0 -928 63 0 64 0 6 233 c9
301 9 1899 0 2095 l-6 152 -57 0 -57 0 -6 -312z"/>
<path d="M6796 6194 c-3 -26 -6 -550 -6 -1165 l0 -1119 59 0 58 0 7 178 c8
229 8 1709 0 1960 l-7 192 -52 0 -52 0 -7 -46z"/>
<path d="M4110 5090 l0 -1090 65 0 65 0 0 1090 0 1090 -65 0 -65 0 0 -1090z"/>
<path d="M7088 5030 c-3 -589 -3 -1081 0 -1095 4 -23 8 -25 63 -25 l59 0 0
1095 0 1095 -59 0 -58 0 -5 -1070z"/>
<path d="M3230 5045 l0 -995 60 0 60 0 0 995 0 995 -60 0 -60 0 0 -995z"/>
<path d="M3820 5090 l0 -930 60 0 60 0 0 930 0 930 -60 0 -60 0 0 -930z"/>
<path d="M2341 5060 l0 -900 59 0 60 0 0 900 0 900 -60 0 -59 0 0 -900z"/>
<path d="M887 5789 c-49 -168 -91 -338 -122 -494 -14 -71 -33 -140 -41 -153
-32 -48 -59 -52 -404 -52 l-320 0 0 -65 0 -65 408 0 408 0 54 219 c30 121 57
218 60 216 3 -2 66 -224 140 -494 74 -270 138 -487 141 -483 11 13 97 256 119
339 41 152 96 205 217 211 l73 4 0 54 0 54 -133 0 c-132 0 -133 0 -159 -27
-14 -16 -45 -64 -69 -107 -35 -66 -44 -76 -51 -60 -5 10 -69 242 -143 514 -75
272 -137 499 -138 504 -2 5 -20 -46 -40 -115z"/>
<path d="M7980 4935 l0 -975 64 0 63 0 0 975 0 975 -63 0 -64 0 0 -975z"/>
<path d="M3520 5135 l0 -765 59 0 58 0 7 228 c8 289 8 759 0 1065 l-7 237 -58
0 -59 0 0 -765z"/>
<path d="M7385 5881 c-3 -6 -3 -340 0 -743 3 -403 5 -817 5 -920 l0 -188 60 0
60 0 0 930 0 930 -59 0 c-33 0 -62 -4 -66 -9z"/>
<path d="M2640 4931 l0 -931 55 0 55 0 -2 928 -3 927 -52 3 -53 3 0 -930z"/>
<path d="M7690 5005 l0 -805 60 0 60 0 0 805 0 805 -60 0 -60 0 0 -805z"/>
<path d="M8860 4870 l0 -870 64 0 64 0 4 713 c1 391 2 783 0 870 l-3 157 -65
0 -64 0 0 -870z"/>
<path d="M10270 5188 c-78 -288 -145 -527 -148 -532 -3 -5 -24 31 -47 80 -23
49 -56 102 -74 119 -28 26 -41 30 -101 33 -39 2 -95 1 -125 -3 l-55 -6 0 -55
0 -54 75 0 c84 0 122 -14 149 -55 9 -14 46 -111 82 -215 80 -234 92 -262 106
-258 7 3 68 210 137 462 105 384 127 454 138 440 13 -18 36 -86 74 -218 15
-50 34 -92 52 -113 l29 -33 389 0 389 0 0 55 0 55 -330 0 c-354 0 -370 2 -396
51 -7 15 -27 92 -44 171 -72 344 -134 598 -145 598 -7 0 -71 -216 -155 -522z"/>
<path d="M2930 4965 l0 -705 60 0 60 0 0 705 0 705 -60 0 -60 0 0 -705z"/>
<path d="M8575 4765 l0 -905 62 0 63 0 0 905 0 905 -63 0 -62 0 0 -905z"/>
<path d="M2050 4975 l0 -595 55 0 55 0 0 595 0 595 -55 0 -55 0 0 -595z"/>
<path d="M8280 4835 l0 -675 60 0 60 0 0 675 0 675 -60 0 -60 0 0 -675z"/>
<path d="M9160 4850 l0 -610 60 0 60 0 0 610 0 610 -60 0 -60 0 0 -610z"/>
<path d="M1752 5008 l3 -303 47 -3 c44 -3 48 -1 55 25 4 15 8 141 8 279 0 295
-2 304 -72 304 l-43 0 2 -302z"/>
<path d="M9450 4953 c0 -115 3 -225 6 -245 l7 -38 63 0 64 0 0 245 0 245 -70
0 -70 0 0 -207z"/>
<path d="M8223 2799 c-117 -20 -249 -91 -311 -168 -94 -117 -138 -290 -129
-501 9 -198 52 -318 149 -425 152 -166 480 -205 710 -83 110 58 196 183 216
311 l9 58 -119 -3 -120 -3 -17 -46 c-26 -66 -57 -104 -114 -135 -66 -36 -168
-44 -252 -20 -76 23 -152 96 -186 181 -21 54 -24 75 -24 215 0 140 3 161 24
214 48 120 138 184 271 193 130 9 196 -22 264 -122 23 -33 52 -65 66 -72 15
-7 63 -13 116 -13 l91 0 -9 58 c-20 134 -113 260 -234 317 -102 48 -267 66
-401 44z"/>
<path d="M5630 2239 c0 -498 2 -547 18 -578 34 -67 56 -75 218 -79 l144 -4 0
91 0 91 -54 0 c-89 0 -86 -10 -86 301 0 267 0 269 21 269 65 0 119 61 119 134
l0 36 -70 0 -70 0 0 85 c0 92 -13 138 -50 170 -17 16 -40 21 -106 24 l-84 3 0
-543z"/>
<path d="M6060 2685 l0 -95 120 0 120 0 0 58 c0 98 -42 132 -165 132 l-75 0 0
-95z"/>
<path d="M7120 2180 l0 -600 120 0 120 0 0 563 c0 494 -2 565 -16 585 -26 38
-67 52 -149 52 l-75 0 0 -600z"/>
<path d="M9800 2180 l0 -600 120 0 120 0 0 563 c0 494 -2 565 -16 585 -26 38
-67 52 -149 52 l-75 0 0 -600z"/>
<path d="M10700 2589 l0 -192 -53 50 c-65 61 -109 78 -212 78 -67 0 -89 -4
-136 -28 -97 -47 -167 -136 -205 -262 -26 -84 -26 -305 0 -390 59 -197 175
-279 391 -280 112 0 170 13 265 61 110 54 158 123 179 254 6 37 11 222 11 428
0 402 -2 415 -62 452 -25 15 -50 20 -105 20 l-73 0 0 -191z m-92 -301 c58 -39
84 -101 90 -214 7 -157 -28 -253 -108 -294 -79 -40 -187 -14 -234 57 -34 53
-47 111 -47 212 0 129 36 211 109 251 52 29 136 23 190 -12z"/>
<path d="M423 2750 c-43 -26 -63 -68 -63 -135 l0 -55 180 0 180 0 0 -490 0
-490 120 0 120 0 0 490 0 490 175 0 175 0 0 105 0 105 -427 0 c-407 0 -430 -1
-460 -20z"/>
<path d="M3275 2517 c-185 -48 -278 -185 -291 -432 -10 -176 32 -310 130 -409
79 -80 130 -101 251 -101 115 0 158 16 215 81 l33 38 -5 -71 c-7 -96 -37 -157
-96 -194 -78 -49 -186 -33 -240 36 -20 25 -22 26 -145 23 l-125 -3 15 -45 c55
-162 182 -245 378 -245 116 0 207 24 294 77 68 41 105 87 133 163 21 56 22 80
26 372 4 357 -3 427 -51 523 -27 54 -42 72 -95 107 -35 24 -93 52 -130 63 -84
27 -228 35 -297 17z m222 -217 c46 -28 90 -93 104 -155 19 -84 8 -212 -24
-276 -38 -77 -81 -104 -166 -103 -140 1 -192 74 -193 264 0 145 41 243 117
276 46 20 124 17 162 -6z"/>
<path d="M9241 2519 c-123 -16 -232 -94 -285 -202 -31 -63 -56 -185 -56 -272
0 -85 24 -205 54 -270 67 -147 257 -234 444 -204 216 34 335 182 349 434 19
353 -182 557 -506 514z m165 -218 c40 -24 78 -75 94 -124 16 -51 14 -211 -4
-270 -38 -126 -144 -179 -252 -126 -56 27 -90 93 -104 203 -19 149 18 269 95
313 51 29 127 31 171 4z"/>
<path d="M1610 2507 c-115 -27 -199 -96 -231 -189 l-18 -53 115 -3 c112 -3
116 -2 135 22 11 13 36 30 56 37 51 16 158 6 192 -18 49 -37 34 -101 -29 -125
-14 -5 -63 -16 -110 -24 -174 -29 -253 -57 -308 -108 -60 -54 -85 -168 -63
-278 17 -81 56 -129 138 -170 66 -32 71 -33 193 -32 206 1 318 48 387 163 17
29 37 75 42 103 14 62 14 451 1 497 -22 78 -88 138 -185 167 -69 21 -246 27
-315 11z m290 -512 c0 -126 -51 -211 -140 -235 -57 -15 -134 -8 -160 15 -48
43 -42 138 10 177 14 10 77 32 139 48 63 17 117 32 119 35 3 3 11 5 19 5 9 0
13 -14 13 -45z"/>
<path d="M2465 2510 c-125 -25 -224 -87 -267 -165 -41 -76 -48 -145 -48 -468
l0 -297 119 0 120 0 3 323 c3 368 4 369 83 407 81 39 165 18 219 -54 20 -26
21 -44 26 -322 l5 -294 28 -27 c25 -26 35 -28 117 -31 l90 -4 0 269 c0 376
-14 467 -85 551 -72 86 -270 140 -410 112z"/>
<path d="M4184 2510 c-199 -42 -314 -216 -314 -475 1 -248 120 -422 318 -464
201 -42 402 41 483 201 46 91 47 90 -81 86 l-109 -3 -38 -37 c-45 -44 -79 -58
-138 -58 -80 0 -133 33 -166 105 -10 22 -19 57 -19 78 l0 37 301 0 302 0 -6
98 c-16 281 -150 427 -402 437 -49 2 -108 0 -131 -5z m213 -216 c32 -23 73
-97 73 -131 l0 -23 -175 0 -175 0 0 25 c0 57 34 107 95 140 42 22 145 16 182
-11z"/>
<path d="M5075 2510 c-125 -25 -224 -87 -267 -165 -41 -76 -48 -145 -48 -468
l0 -297 119 0 120 0 3 323 c3 368 4 369 83 407 81 39 165 18 219 -54 20 -26
21 -44 26 -322 l5 -294 28 -27 c25 -26 35 -28 117 -31 l90 -4 0 269 c0 376
-14 467 -85 551 -72 86 -270 140 -410 112z"/>
<path d="M6560 2507 c-115 -27 -199 -96 -231 -189 l-18 -53 115 -3 c112 -3
116 -2 135 22 11 13 36 30 56 37 51 16 158 6 192 -18 49 -37 34 -101 -29 -125
-14 -5 -63 -16 -110 -24 -222 -38 -295 -72 -357 -170 -9 -15 -12 30 -12 215
l-1 233 -34 34 c-33 33 -36 34 -120 34 l-86 0 0 -460 0 -460 120 0 120 0 0 76
0 76 33 -48 c25 -38 48 -57 101 -84 68 -35 70 -35 195 -34 207 1 319 48 388
163 17 29 37 75 42 103 14 62 14 451 1 497 -22 78 -88 138 -185 167 -69 21
-246 27 -315 11z m290 -512 c0 -126 -51 -211 -140 -235 -57 -15 -134 -8 -160
15 -48 43 -42 138 10 177 14 10 77 32 139 48 63 17 117 32 119 35 3 3 11 5 19
5 9 0 13 -14 13 -45z"/>
<path d="M2991 921 c-13 -3 -34 -19 -45 -34 -18 -24 -21 -43 -21 -128 0 -94 1
-100 28 -126 l27 -28 230 -3 230 -3 0 -85 0 -84 -220 0 -220 0 0 46 c0 38 -3
45 -17 40 -10 -2 -33 -7 -50 -11 -30 -6 -33 -10 -33 -41 0 -61 24 -101 67
-113 49 -14 456 -14 505 0 55 15 68 47 68 163 0 174 -3 176 -305 176 l-215 0
0 75 0 75 210 0 210 0 0 -36 c0 -29 3 -34 18 -30 9 2 32 7 50 11 31 6 32 8 26
43 -17 96 -36 102 -306 101 -117 -1 -224 -4 -237 -8z"/>
<path d="M3700 885 l0 -45 140 0 140 0 0 -250 0 -250 55 0 55 0 0 250 0 250
140 0 140 0 0 45 0 45 -335 0 -335 0 0 -45z"/>
<path d="M4540 675 c0 -295 3 -307 71 -325 26 -7 127 -10 280 -8 l239 3 27 28
28 27 3 265 3 265 -55 0 -56 0 0 -250 0 -250 -215 0 -215 0 0 250 0 250 -55 0
-55 0 0 -255z"/>
<path d="M5500 635 l0 -297 233 4 c256 5 299 13 374 68 66 49 88 105 88 225 0
84 -4 107 -22 141 -29 55 -103 119 -156 134 -26 8 -132 14 -279 17 l-238 5 0
-297z m494 175 c78 -39 91 -64 91 -175 0 -111 -13 -136 -91 -175 -45 -23 -61
-25 -216 -28 l-168 -4 0 207 0 207 168 -4 c155 -3 171 -5 216 -28z"/>
<path d="M6460 635 l0 -295 55 0 55 0 0 295 0 295 -55 0 -55 0 0 -295z"/>
<path d="M6890 912 c-55 -27 -62 -62 -58 -299 3 -186 5 -204 24 -230 11 -15
32 -31 45 -34 13 -4 142 -7 287 -8 283 -1 317 4 344 51 18 31 18 440 0 481
-22 52 -54 57 -344 57 -230 0 -267 -2 -298 -18z m550 -277 l0 -205 -250 0
-250 0 0 205 0 205 250 0 250 0 0 -205z"/>
<path d="M7881 921 c-13 -3 -34 -19 -45 -34 -18 -24 -21 -43 -21 -128 0 -94 1
-100 28 -126 l27 -28 230 -3 230 -3 0 -85 0 -84 -220 0 -220 0 0 46 c0 38 -3
45 -17 40 -10 -2 -33 -7 -50 -11 -30 -6 -33 -10 -33 -41 0 -61 24 -101 67
-113 49 -14 456 -14 505 0 55 15 68 47 68 163 0 174 -3 176 -305 176 l-215 0
0 75 0 75 210 0 210 0 0 -36 c0 -29 3 -34 18 -30 9 2 32 7 50 11 31 6 32 8 26
43 -17 96 -36 102 -306 101 -117 -1 -224 -4 -237 -8z"/>
</g>
</svg>
